<svg width="100" height="100" viewBox="0 0 100 100" fill="none" xmlns="http://www.w3.org/2000/svg">
<rect width="100" height="100" rx="50" fill="url(#paint0_linear_1_8)"/>
<path fill-rule="evenodd" clip-rule="evenodd" d="M32.2168 40.3186C36.8248 37.061 43.0177 35.0666 49.8275 35.0666C56.645 35.0666 62.8443 37.0656 67.4539 40.3298C67.11 37.8612 66.4807 35.335 65.9247 33.1028C65.0183 29.4642 64.3066 26.607 65.343 26.0542C67.9498 24.664 76.5886 50.4177 75.5891 55.1738C75.1416 65.6285 63.779 74 49.8275 74C35.8342 74 24.4454 65.5784 24.0621 55.08C23.1909 50.0893 31.7361 24.6729 34.3262 26.0542C35.3626 26.607 34.6509 29.4642 33.7445 33.1028C33.1893 35.3316 32.561 37.8536 32.2168 40.3186Z" fill="white"/>
<defs>
<linearGradient id="paint0_linear_1_8" x1="84.5" y1="17" x2="12.5" y2="95" gradientUnits="userSpaceOnUse">
<stop stop-color="#E06E5C"/>
<stop offset="1" stop-color="#E89183"/>
</linearGradient>
</defs>
</svg>
